<svg version="1.1" id="Layer_1" xmlns="http://www.w3.org/2000/svg" xmlns:xlink="http://www.w3.org/1999/xlink" x="0px" y="0px"
	 width="100%" viewBox="0 0 650 650" enable-background="new 0 0 650 650" xml:space="preserve">
<path fill="#5457f0" opacity="1.000000" stroke="none" 
	d="
M292.745239,540.254761 
	C266.526459,514.381897 240.880585,488.420135 214.473785,463.256866 
	C197.166336,446.764435 180.763138,429.187958 160.960754,415.435944 
	C133.132233,396.110046 103.358482,381.184845 69.455490,376.393677 
	C58.480236,374.842651 47.205189,375.417603 36.067852,375.004669 
	C33.974880,374.927063 31.884615,374.776550 28.110323,374.565613 
	C121.840317,280.656738 214.449997,187.870285 307.300812,94.842239 
	C307.300812,247.360870 307.300812,399.970856 307.300812,552.580872 
	C306.860168,552.809021 306.419525,553.037231 305.978882,553.265381 
	C301.650940,549.011902 297.322998,544.758423 292.745239,540.254761 
z"/>
<path fill="#5457f0" opacity="1.000000" stroke="none" 
	d="
M421.193115,169.840759 
	C428.236389,177.367310 434.927399,184.744278 441.898865,191.845963 
	C458.672516,208.933029 475.523163,225.945465 492.440338,242.890533 
	C534.693909,285.213745 577.002991,327.481445 619.281189,369.780060 
	C620.431580,370.931030 621.483459,372.180420 623.456909,374.343781 
	C620.260498,374.626343 618.097839,375.067566 615.960449,374.967712 
	C594.823547,373.980469 574.152832,376.435760 553.753784,382.199371 
	C531.049683,388.614319 510.872589,399.761475 493.012085,414.780365 
	C475.458069,429.541534 458.337372,444.889374 441.846863,460.828552 
	C411.072723,490.573853 380.893982,520.935181 350.461395,551.033936 
	C349.410461,552.073364 348.294434,553.046997 346.524933,554.683777 
	C346.524933,402.208405 346.524933,250.530807 346.524933,97.221848 
	C372.489319,121.466087 397.109192,145.117554 421.193115,169.840759 
z"/>
</svg>