<svg width="127" height="96" viewBox="0 0 127 96" fill="none" xmlns="http://www.w3.org/2000/svg">
<path d="M81.15 0C79.9124 2.1973 78.8011 4.4704 77.7909 6.794C68.1934 5.3544 58.4191 5.3544 48.7964 6.794C47.8114 4.4704 46.6748 2.1973 45.4373 0C36.4207 1.5407 27.6314 4.2431 19.2968 8.0568C2.77901 32.5304 -1.69139 56.3725 0.531208 79.8863C10.2044 87.0339 21.0395 92.4893 32.5817 95.9747C35.1831 92.4893 37.4815 88.7766 39.4515 84.9124C35.7135 83.5233 32.1018 81.7806 28.6417 79.7601C29.5509 79.1034 30.4349 78.4215 31.2936 77.7648C51.5746 87.3118 75.0632 87.3118 95.3694 77.7648C96.2281 78.472 97.1121 79.1539 98.0213 79.7601C94.5612 81.8058 90.9495 83.5233 87.1863 84.9377C89.1563 88.8019 91.4546 92.5146 94.0561 96C105.598 92.5146 116.433 87.0844 126.107 79.9369C128.733 52.6598 121.611 29.0197 107.29 8.0821C98.9811 4.2684 90.1918 1.5659 81.1752 0.0505L81.15 0ZM42.2802 65.4144C36.0419 65.4144 30.8643 59.7569 30.8643 52.7609C30.8643 45.7649 35.8398 40.0821 42.255 40.0821C48.6702 40.0821 53.7719 45.7901 53.6709 52.7609C53.5699 59.7317 48.6449 65.4144 42.2802 65.4144ZM84.3576 65.4144C78.0939 65.4144 72.9669 59.7569 72.9669 52.7609C72.9669 45.7649 77.9424 40.0821 84.3576 40.0821C90.7728 40.0821 95.8493 45.7901 95.7482 52.7609C95.6472 59.7317 90.7222 65.4144 84.3576 65.4144Z" fill="#24292F"/>
</svg>
