<svg width="97" height="40" viewBox="0 0 97 40" fill="none" xmlns="http://www.w3.org/2000/svg">
<path fill-rule="evenodd" clip-rule="evenodd" d="M20 32C26.38 32 31.5971 27.0211 31.9778 20.7369L26.1342 21.9891C25.0184 22.7912 23.7999 23.5796 22.5 24.3301C18.4665 26.6588 14.5086 28.1269 11.5709 28.541C9.28319 28.8635 7.61411 28.5469 7.00964 27.5C6.40549 26.4535 6.96493 24.8509 8.38641 23.0322C8.72758 24.3426 9.28467 25.5658 10.0174 26.6616C10.5929 26.6593 11.3158 26.5828 12.1812 26.4057C14.7223 25.8857 18.0472 24.5915 21.5 22.598C22.4738 22.0358 23.3942 21.4547 24.2527 20.8664L27.4211 10.5692C25.379 8.96008 22.8016 8 20 8C13.4735 8 8.16384 13.2103 8.00375 19.6983C7.71232 19.9945 7.43613 20.2896 7.17616 20.5827C6.12515 21.768 5.24153 23.0305 4.73549 24.2983C4.24275 25.5329 3.95223 27.2044 4.84457 28.75C5.73692 30.2955 7.32977 30.8797 8.64525 31.0702C9.99624 31.2659 11.5315 31.132 13.0834 30.8144C13.4663 30.736 13.8589 30.6447 14.2599 30.5407C15.965 31.4712 17.9208 32 20 32ZM20 9.99997C14.4772 9.99997 10 14.4771 10 20C10 20.5523 10.4477 21 11 21C11.5523 21 12 20.5523 12 20C12 15.5817 15.5817 12 20 12C20.5523 12 21 11.5523 21 11C21 10.4477 20.5523 9.99997 20 9.99997Z" fill="white"/>
<path d="M39.0626 17.1734L38.189 9.31109L30.1747 8.42061L26.6641 19.8302L39.0626 17.1734Z" fill="white"/>
<path d="M49.848 28V11.2H53.592V18.208H53.808L59.376 11.2H63.648L57.048 18.928L64.08 28H59.592L53.784 20.128H53.592V28H49.848ZM66.3424 28V15.52H69.9184V28H66.3424ZM68.1424 13.984C67.5184 13.984 67.0224 13.824 66.6544 13.504C66.2864 13.168 66.1024 12.728 66.1024 12.184C66.1024 11.64 66.2864 11.2 66.6544 10.864C67.0384 10.512 67.5344 10.336 68.1424 10.336C68.7664 10.336 69.2704 10.512 69.6544 10.864C70.0544 11.2 70.2544 11.64 70.2544 12.184C70.2544 12.728 70.0544 13.168 69.6544 13.504C69.2704 13.824 68.7664 13.984 68.1424 13.984ZM77.6753 28.168C77.0353 28.168 76.4593 28.08 75.9473 27.904C75.4353 27.728 75.0033 27.472 74.6513 27.136C74.2993 26.784 74.0273 26.352 73.8353 25.84C73.6593 25.328 73.5713 24.736 73.5713 24.064V18.28H71.9153V15.904C72.1393 15.84 72.3953 15.776 72.6833 15.712C72.9873 15.648 73.2833 15.6 73.5713 15.568V12.64L77.0993 12.208V15.52H80.8673V18.28H77.0753V23.416C77.0753 24.056 77.2193 24.512 77.5073 24.784C77.7953 25.04 78.2113 25.168 78.7553 25.168C78.9153 25.168 79.0913 25.16 79.2833 25.144C79.4913 25.112 79.6913 25.088 79.8833 25.072C80.0913 25.04 80.2833 25.008 80.4593 24.976C80.6513 24.944 80.8113 24.92 80.9393 24.904V27.616C80.5073 27.808 79.9793 27.944 79.3553 28.024C78.7313 28.12 78.1713 28.168 77.6753 28.168ZM88.9104 28.264C87.9504 28.264 87.0624 28.112 86.2464 27.808C85.4304 27.504 84.7344 27.08 84.1584 26.536C83.5824 25.976 83.1344 25.312 82.8144 24.544C82.4944 23.776 82.3344 22.928 82.3344 22V21.592C82.3344 20.68 82.4944 19.84 82.8144 19.072C83.1504 18.304 83.6064 17.64 84.1824 17.08C84.7584 16.504 85.4384 16.064 86.2224 15.76C87.0224 15.44 87.8864 15.28 88.8144 15.28H89.0304C89.9104 15.28 90.7184 15.424 91.4544 15.712C92.2064 15.984 92.8464 16.376 93.3744 16.888C93.9184 17.4 94.3424 18.008 94.6464 18.712C94.9504 19.4 95.1024 20.152 95.1024 20.968V22.744H85.8144C85.8624 23.16 85.9744 23.528 86.1504 23.848C86.3264 24.168 86.5584 24.448 86.8464 24.688C87.1344 24.912 87.4704 25.088 87.8544 25.216C88.2544 25.344 88.6784 25.408 89.1264 25.408H89.2944C90.0464 25.408 90.7264 25.264 91.3344 24.976C91.9584 24.688 92.4624 24.336 92.8464 23.92L94.6224 26.152C94.3184 26.456 93.9584 26.744 93.5424 27.016C93.1424 27.272 92.7024 27.496 92.2224 27.688C91.7424 27.864 91.2464 28 90.7344 28.096C90.2384 28.208 89.7424 28.264 89.2464 28.264H88.9104ZM85.8864 20.56H91.7184C91.7024 20.176 91.6144 19.824 91.4544 19.504C91.3104 19.168 91.1104 18.888 90.8544 18.664C90.6144 18.424 90.3264 18.24 89.9904 18.112C89.6704 17.968 89.3104 17.896 88.9104 17.896H88.8624C88.4944 17.896 88.1424 17.96 87.8064 18.088C87.4864 18.2 87.1984 18.376 86.9424 18.616C86.6864 18.84 86.4624 19.12 86.2704 19.456C86.0944 19.776 85.9664 20.144 85.8864 20.56Z" fill="white"/>
</svg>
