<svg width="40" height="40" viewBox="0 0 40 40" fill="none" xmlns="http://www.w3.org/2000/svg">
<path fill-rule="evenodd" clip-rule="evenodd" d="M20 32C26.38 32 31.5971 27.0211 31.9778 20.7369L26.1342 21.9891C25.0184 22.7912 23.7999 23.5796 22.5 24.3301C18.4665 26.6588 14.5086 28.1269 11.5709 28.541C9.28319 28.8635 7.61411 28.5469 7.00964 27.5C6.40549 26.4535 6.96493 24.8509 8.38641 23.0322C8.72758 24.3426 9.28467 25.5658 10.0174 26.6616C10.5929 26.6593 11.3158 26.5828 12.1812 26.4057C14.7223 25.8857 18.0472 24.5915 21.5 22.598C22.4738 22.0358 23.3942 21.4547 24.2527 20.8664L27.4211 10.5692C25.379 8.96008 22.8016 8 20 8C13.4735 8 8.16384 13.2103 8.00375 19.6983C7.71232 19.9945 7.43613 20.2896 7.17616 20.5827C6.12515 21.768 5.24153 23.0305 4.73549 24.2983C4.24275 25.5329 3.95223 27.2044 4.84457 28.75C5.73692 30.2955 7.32977 30.8797 8.64525 31.0702C9.99624 31.2659 11.5315 31.132 13.0834 30.8144C13.4663 30.736 13.8589 30.6447 14.2599 30.5407C15.965 31.4712 17.9208 32 20 32ZM20 9.99997C14.4772 9.99997 10 14.4771 10 20C10 20.5523 10.4477 21 11 21C11.5523 21 12 20.5523 12 20C12 15.5817 15.5817 12 20 12C20.5523 12 21 11.5523 21 11C21 10.4477 20.5523 9.99997 20 9.99997Z" fill="black"/>
<path d="M39.0626 17.1734L38.189 9.31109L30.1747 8.42061L26.6641 19.8302L39.0626 17.1734Z" fill="black"/>
</svg>
